HIERARCHY
ROOT Hips
{
	OFFSET 0.00000 0.00000 0.00000
	CHANNELS 6 Xposition Yposition Zposition Zrotation Yrotation Xrotation 
	JOINT RightUpLegDummy
	{
		OFFSET 0 0 0
		CHANNELS 3 Zrotation Yrotation Xrotation
		JOINT RightUpLeg
		{
			OFFSET -3.52197 -3.41223 0.04002
			CHANNELS 3 Zrotation Yrotation Xrotation
			JOINT RightLeg
			{
				OFFSET 0.00006 -17.42390 1.60435
				CHANNELS 3 Zrotation Yrotation Xrotation
				JOINT RightFoot
				{
					OFFSET 0.06154 -16.50078 -1.63900
					CHANNELS 3 Zrotation Yrotation Xrotation
					JOINT RightToes
					{
						OFFSET 0.00298 -1.73825 3.34613
						CHANNELS 3 Zrotation Yrotation Xrotation
						End Site
						{
							OFFSET 0.00000 0.00000 0.00000
						}
					}
				}
			}
		}
	}
	JOINT SpineDummy
	{
		OFFSET 0 0 0
		CHANNELS 3 Zrotation Yrotation Xrotation
		JOINT Spine
		{
			OFFSET 0.00000 4.68130 0.00000
			CHANNELS 3 Zrotation Yrotation Xrotation
			JOINT Spine1
			{
				OFFSET -0.00000 10.10138 0.05002
				CHANNELS 3 Zrotation Yrotation Xrotation
				JOINT HEadDummy
				{
					OFFSET 0 0 0
					CHANNELS 3 Zrotation Yrotation Xrotation
					JOINT Head
					{
						OFFSET -0.00000 3.43865 0.00438
						CHANNELS 3 Zrotation Yrotation Xrotation
						End Site
						{
							OFFSET 0.00000 0.00000 0.00000
						}
					}
				}
				JOINT LeftShoulder1Dummy
				{
					OFFSET 0 0 0
					CHANNELS 3 Zrotation Yrotation Xrotation
					JOINT LeftShoulder1
					{
						OFFSET 3.53937 -0.14262 -0.08662
						CHANNELS 3 Zrotation Yrotation Xrotation
						JOINT LeftArm
						{
							OFFSET 4.04833 -0.00133 0.12681
							CHANNELS 3 Zrotation Yrotation Xrotation
							JOINT LeftForeArm
							{
								OFFSET 10.33880 -0.01036 -0.55515
								CHANNELS 3 Zrotation Yrotation Xrotation
								JOINT LeftHand
								{
									OFFSET 8.69677 0.07543 0.40060
									CHANNELS 3 Zrotation Yrotation Xrotation
									End Site
									{
										OFFSET 0.00000 0.00000 0.00000
									}
								}
							}
						}
					}
				}
				JOINT RightShoulderDummy
				{
					OFFSET 0 0 0
					CHANNELS 3 Zrotation Yrotation Xrotation
					JOINT RightShoulder
					{
						OFFSET -3.53937 -0.14262 -0.08660
						CHANNELS 3 Zrotation Yrotation Xrotation
						JOINT RightArm
						{
							OFFSET -4.04833 -0.00133 0.12683
							CHANNELS 3 Zrotation Yrotation Xrotation
							JOINT RightForeArm
							{
								OFFSET -10.37987 -0.01039 -0.55511
								CHANNELS 3 Zrotation Yrotation Xrotation
								JOINT RightHand
								{
									OFFSET -8.67398 0.07538 0.40058
									CHANNELS 3 Zrotation Yrotation Xrotation
									End Site
									{
										OFFSET 0.00000 0.00000 0.00000
									}
								}
							}
						}
					}
				}
			}
		}
	}
	JOINT LeftUpLegDummy
	{
		OFFSET 0 0 0
		CHANNELS 3 Zrotation Yrotation Xrotation
		JOINT LeftUpLeg
		{
			OFFSET 3.52197 -3.41223 0.04002
			CHANNELS 3 Zrotation Yrotation Xrotation
			JOINT LeftLeg
			{
				OFFSET -0.00012 -17.42399 1.60337
				CHANNELS 3 Zrotation Yrotation Xrotation
				JOINT LeftFoot
				{
					OFFSET -0.09972 -16.50070 -1.63802
					CHANNELS 3 Zrotation Yrotation Xrotation
					JOINT LeftToes
					{
						OFFSET -0.01575 -1.73823 3.34611
						CHANNELS 3 Zrotation Yrotation Xrotation
						End Site
						{
							OFFSET 0.00000 0.00000 0.00000
						}
					}
				}
			}
		}
	}
}
MOTION
Frames: 19
Frame Time: 0.033333
75.8153 40.3767 26.0953 31.9881 -85.3532 -27.9271 0.0000 0.0000 0.0000 -5.5165 -8.6769 -2.0775 2.0305 -7.7046 3.9644 -0.3061 0.0015 -4.3048 -0.0000 0.0000 0.0000 0.0000 0.0000 0.0000 13.2828 -1.3523 -4.1866 -28.0960 3.0517 -1.0160 0.0000 0.0000 0.0000 -7.8695 1.7198 6.3851 0.0000 0.0000 0.0000 -37.4866 -9.2755 5.5760 -22.0949 8.8936 -4.8710 1.1687 -49.7121 25.9445 5.3221 0.0205 -0.2441 0.0000 0.0000 0.0000 26.1331 2.0023 1.7834 -6.5329 -9.0286 -12.2577 4.5385 2.5879 1.8530 -9.8538 0.0852 -0.4623 0.0000 0.0000 0.0000 2.1899 5.0989 0.1977 -5.8587 11.0706 -3.8567 0.5892 -0.0617 0.0387 -0.0000 0.0000 -0.0000
75.8125 40.3765 26.1044 32.2229 -85.4020 -28.1400 0.0000 0.0000 0.0000 -5.5187 -8.6718 -2.0899 2.0441 -7.6686 3.9319 -0.3551 0.0046 -4.2802 -0.0000 0.0000 0.0000 0.0000 0.0000 0.0000 13.3743 -1.2989 -4.2186 -28.2015 3.1303 -0.9512 0.0000 0.0000 0.0000 -27.8455 -10.4298 -7.2556 0.0000 0.0000 0.0000 -37.4312 -9.2533 5.5591 -21.8392 8.7941 -6.8163 0.8028 -49.9582 20.9577 5.3221 0.0205 -0.2441 0.0000 0.0000 0.0000 26.2038 1.9218 1.7612 -6.5952 -9.0154 -12.3040 4.5184 2.6980 1.9027 -9.7261 0.0565 -0.4539 0.0000 0.0000 0.0000 2.1764 5.0882 0.1900 -5.8506 11.1200 -3.8737 0.6324 -0.0645 0.0491 -0.0000 0.0000 -0.0000
75.7908 40.3767 26.1132 32.9323 -85.4199 -28.7633 0.0000 0.0000 0.0000 -5.5687 -8.7260 -2.1881 2.0610 -7.5947 3.9987 -0.4006 0.0075 -4.2918 -0.0000 0.0000 0.0000 0.0000 0.0000 0.0000 13.3707 -1.2055 -4.5348 -28.2145 3.2800 -0.6239 0.0000 0.0000 0.0000 -36.5311 -31.7326 -19.0191 0.0000 0.0000 0.0000 -37.3615 -9.2254 5.5377 -21.5013 8.6888 -9.3508 0.3488 -50.3708 14.9531 5.3221 0.0205 -0.2441 0.0000 0.0000 0.0000 26.2000 1.8093 1.7247 -6.5874 -8.9728 -12.3562 4.4889 2.9153 2.0219 -9.6805 0.1921 -0.4626 0.0000 0.0000 0.0000 2.1194 5.0302 0.1883 -5.8714 11.1931 -3.9860 0.6146 -0.0633 0.0813 -0.0000 0.0000 -0.0000
75.7782 40.3793 26.1278 33.2694 -85.4370 -29.0919 0.0000 0.0000 0.0000 -5.6156 -8.7860 -2.1974 2.0930 -7.5209 4.0304 -0.4443 0.0103 -4.2670 -0.0000 0.0000 0.0000 0.0000 0.0000 0.0000 13.6743 -1.2003 -4.6169 -28.6511 3.3750 -0.4989 0.0000 0.0000 0.0000 -34.1989 -41.8430 -25.3245 0.0000 0.0000 0.0000 -37.2868 -9.1947 5.5146 -21.1667 8.6089 -11.8926 -0.0558 -50.8977 9.7494 5.3221 0.0205 -0.2441 0.0000 0.0000 0.0000 26.2585 1.7698 1.7150 -6.5588 -8.9304 -12.4193 4.4632 2.9834 2.1192 -9.8378 0.4099 -0.4876 0.0000 0.0000 0.0000 2.0759 4.9798 0.2174 -5.8590 11.2788 -4.0182 0.6138 -0.0633 0.0875 -0.0000 0.0000 -0.0000
75.7885 40.3821 26.1472 32.9540 -85.5072 -28.8867 0.0000 0.0000 0.0000 -5.6008 -8.7728 -2.0650 2.1221 -7.4824 3.9460 -0.5245 0.0152 -4.1739 -0.0000 0.0000 0.0000 0.0000 0.0000 0.0000 14.2646 -1.2450 -4.3645 -29.4527 3.4412 -0.6055 0.0000 0.0000 0.0000 -33.5437 -42.0701 -24.5367 0.0000 0.0000 0.0000 -37.2035 -9.1610 5.4891 -20.8372 8.5543 -14.4683 -0.4011 -51.5521 5.4241 5.3221 0.0205 -0.2441 0.0000 0.0000 0.0000 26.4839 1.8186 1.7424 -6.6492 -8.9459 -12.5632 4.4225 2.7701 2.1852 -9.9614 0.5366 -0.5041 0.0000 0.0000 0.0000 2.0893 4.9895 0.2658 -5.7917 11.3444 -3.8950 0.6923 -0.0683 0.0446 -0.0000 0.0000 -0.0000
75.7958 40.3830 26.1561 32.6417 -85.5862 -28.6522 0.0000 0.0000 0.0000 -5.5540 -8.7227 -1.9846 2.1237 -7.4725 3.9020 -0.5807 0.0186 -4.1217 -0.0000 0.0000 0.0000 0.0000 0.0000 0.0000 14.4849 -1.2178 -4.1156 -29.7475 3.4935 -0.7619 0.0000 0.0000 0.0000 -33.0719 -43.1508 -24.4932 0.0000 0.0000 0.0000 -37.1225 -9.1332 5.4664 -20.5056 8.5315 -17.0813 -0.6861 -52.3084 1.9719 5.3221 0.0205 -0.2441 0.0000 0.0000 0.0000 26.6920 1.8260 1.7556 -6.8616 -9.0644 -12.6963 4.3711 2.5518 2.3174 -9.8356 0.5605 -0.4996 0.0000 0.0000 0.0000 2.1319 5.0313 0.2955 -5.7493 11.3488 -3.7947 0.7195 -0.0701 -0.0063 -0.0000 0.0000 -0.0000
75.7782 40.3799 26.1487 32.8890 -85.5955 -28.8496 0.0000 0.0000 0.0000 -5.5469 -8.7171 -2.0519 2.1038 -7.4641 3.9827 -0.5289 0.0155 -4.1889 -0.0000 0.0000 0.0000 0.0000 0.0000 0.0000 14.3149 -1.1539 -4.2211 -29.5740 3.5489 -0.6777 0.0000 0.0000 0.0000 -32.6547 -44.2187 -24.5911 0.0000 0.0000 0.0000 -37.0533 -9.1082 5.4466 -20.1599 8.5358 -19.7108 -0.9188 -53.1384 -0.7179 5.3221 0.0205 -0.2441 0.0000 0.0000 0.0000 26.7040 1.7089 1.7179 -6.9423 -9.0849 -12.7821 4.3265 2.5655 2.5924 -9.5735 0.6130 -0.4902 0.0000 0.0000 0.0000 2.1466 5.0467 0.3094 -5.7908 11.3282 -3.8722 0.6456 -0.0653 -0.0112 -0.0000 0.0000 -0.0000
75.7537 40.3754 26.1393 33.5928 -85.5739 -29.4758 0.0000 0.0000 0.0000 -5.5814 -8.7398 -2.1266 2.0817 -7.4255 4.0567 -0.4214 0.0089 -4.3041 -0.0000 0.0000 0.0000 0.0000 0.0000 0.0000 14.3205 -1.1575 -4.4687 -29.7422 3.6052 -0.4883 0.0000 0.0000 0.0000 -32.1012 -45.2654 -24.5470 0.0000 0.0000 0.0000 -36.9740 -9.0727 5.4210 -19.8265 8.5586 -22.3227 -1.1049 -54.0708 -2.7121 5.3221 0.0205 -0.2441 0.0000 0.0000 0.0000 26.7469 1.6216 1.6914 -6.9199 -9.0087 -12.7706 4.3240 2.6857 2.8200 -9.4308 0.7310 -0.4919 0.0000 0.0000 0.0000 2.1192 5.0293 0.3351 -5.8540 11.3742 -4.0096 0.6292 -0.0643 0.0079 -0.0000 0.0000 -0.0000
75.7530 40.3756 26.1391 34.0598 -85.6247 -29.9820 0.0000 0.0000 0.0000 -5.5822 -8.7050 -2.0729 2.0631 -7.3626 4.0368 -0.3386 0.0038 -4.3832 -0.0000 0.0000 0.0000 0.0000 0.0000 0.0000 14.6593 -1.1913 -4.5176 -30.3529 3.6979 -0.3476 0.0000 0.0000 0.0000 -31.4634 -46.4036 -24.5212 0.0000 0.0000 0.0000 -36.8883 -9.0333 5.3930 -19.5048 8.6079 -24.9181 -1.2540 -55.1121 -4.1293 5.3221 0.0205 -0.2441 0.0000 0.0000 0.0000 26.9587 1.6703 1.7181 -6.9636 -9.0355 -12.6997 4.3578 2.7391 2.6428 -9.4480 0.7607 -0.4951 0.0000 0.0000 0.0000 2.1156 5.0458 0.3693 -5.8439 11.4391 -3.9659 0.6910 -0.0679 -0.0368 -0.0000 0.0000 -0.0000
75.7564 40.3746 26.1201 34.5043 -85.6616 -30.4885 0.0000 0.0000 0.0000 -5.5375 -8.6298 -2.0783 1.9985 -7.3530 4.1893 -0.2007 -0.0051 -4.5848 -0.0000 0.0000 0.0000 0.0000 0.0000 0.0000 14.6903 -1.1584 -4.5028 -30.5408 3.8009 -0.1928 0.0000 0.0000 0.0000 -30.9377 -47.6746 -24.6891 0.0000 0.0000 0.0000 -36.8181 -9.0043 5.3715 -19.1784 8.6927 -27.5130 -1.3775 -56.2231 -5.1273 5.3221 0.0205 -0.2441 0.0000 0.0000 0.0000 27.0803 1.6694 1.7239 -6.9589 -9.1620 -12.7196 4.3584 2.8247 2.2171 -9.4589 0.5823 -0.4820 0.0000 0.0000 0.0000 2.1758 5.1395 0.3578 -5.8429 11.3470 -3.7918 0.6435 -0.0621 -0.1458 -0.0000 0.0000 -0.0000
75.8501 40.3737 26.2218 28.7819 -86.2633 -25.4632 0.0000 0.0000 0.0000 -5.3694 -8.5310 -1.4497 2.2296 -6.8892 4.0620 -0.0127 -0.0160 -4.5115 -0.0000 0.0000 0.0000 0.0000 0.0000 0.0000 16.5963 -1.6022 -2.1963 -32.2801 3.4189 -1.8178 0.0000 0.0000 0.0000 -30.5802 -48.7982 -24.9492 0.0000 0.0000 0.0000 -36.7554 -8.9802 5.3531 -18.8569 8.8016 -30.0952 -1.4837 -57.3606 -5.8249 5.3221 0.0205 -0.2441 0.0000 0.0000 0.0000 26.8931 1.4170 1.6314 -6.7518 -9.0562 -12.9483 4.2784 2.9989 2.2141 -9.4488 0.3556 -0.4639 0.0000 0.0000 0.0000 2.4880 5.3913 0.5660 -5.4131 11.5451 -2.8241 0.4460 -0.0383 -0.6676 -0.0000 0.0000 -0.0000
76.2210 40.3930 26.6888 9.1100 -88.5428 -8.1544 0.0000 0.0000 0.0000 -4.8830 -8.2672 1.0013 3.2702 -5.1696 2.6304 -0.0520 -0.0086 -3.2900 -0.0000 0.0000 0.0000 0.0000 0.0000 0.0000 24.4093 -3.2838 5.8531 -39.6197 2.0156 -7.8770 0.0000 0.0000 0.0000 -30.2787 -49.6326 -25.0644 0.0000 0.0000 0.0000 -36.6665 -8.9412 5.3250 -18.5772 8.9066 -32.6200 -1.5756 -58.5554 -6.2316 5.3221 0.0205 -0.2441 0.0000 0.0000 0.0000 26.8878 1.1309 1.5369 -6.5885 -8.6555 -13.3142 4.1853 3.1362 2.2830 -9.8354 0.3545 -0.4829 0.0000 0.0000 0.0000 3.2877 5.8846 1.3501 -3.7270 12.8862 0.1014 0.2421 -0.0062 -2.1491 -0.0000 0.0000 -0.0000
76.1952 40.3651 26.6122 16.9760 -88.5722 -15.6964 0.0000 0.0000 0.0000 -4.8204 -8.1274 0.0479 2.8469 -5.2509 3.9352 -0.1366 -0.0072 -4.1854 -0.0000 0.0000 0.0000 0.0000 0.0000 0.0000 23.0113 -3.4512 6.2721 -38.2544 1.4397 -8.7800 0.0000 0.0000 0.0000 -29.7970 -50.3179 -25.6849 0.0000 0.0000 0.0000 -36.5887 -8.8958 5.2957 -18.2834 9.0160 -35.1316 -1.6588 -59.6762 -6.5678 5.3221 0.0205 -0.2441 0.0000 0.0000 0.0000 27.4646 1.1756 1.5782 -6.5726 -8.2972 -13.7433 4.1829 3.4495 0.5034 -11.2661 0.6324 -0.5803 0.0000 0.0000 0.0000 3.1986 5.9275 1.0497 -3.8922 12.9655 0.1511 0.3425 -0.0132 -2.2988 -0.0000 0.0000 -0.0000
76.1902 40.3362 26.5546 26.8569 -88.9379 -25.3047 0.0000 0.0000 0.0000 -4.5274 -7.8725 -0.9570 2.3411 -5.1776 5.2825 -0.2229 -0.0068 -5.1228 -0.0000 0.0000 0.0000 0.0000 0.0000 0.0000 21.1442 -3.3942 6.2604 -35.3637 1.1634 -8.5710 0.0000 0.0000 0.0000 -28.5643 -50.7397 -28.4415 0.0000 0.0000 0.0000 -36.7411 -8.9025 5.3181 -17.6296 9.1802 -37.9250 -1.7893 -59.9127 -7.7994 5.3221 0.0205 -0.2441 0.0000 0.0000 0.0000 27.5062 1.4135 1.6594 -5.7346 -7.5017 -14.7001 4.2048 4.5086 -3.9892 -13.9327 1.2373 -0.7917 0.0000 0.0000 0.0000 3.2565 6.0651 0.6812 -3.9340 13.1721 0.4646 0.1597 0.0033 -2.5888 -0.0000 0.0000 -0.0000
76.1593 40.3091 26.4800 37.1136 -89.2657 -35.5114 0.0000 0.0000 0.0000 -4.1418 -7.7688 -1.5709 1.8504 -4.9809 6.4657 -0.0219 -0.0216 -6.1620 -0.0000 0.0000 0.0000 0.0000 0.0000 0.0000 18.3486 -3.3093 5.5724 -30.3355 0.9850 -6.6272 0.0000 0.0000 0.0000 -26.6450 -52.2197 -33.1762 0.0000 0.0000 0.0000 -37.4220 -9.0674 5.4681 -16.8177 9.3122 -41.3057 -1.7111 -59.4124 -10.5544 5.3221 0.0205 -0.2441 0.0000 0.0000 0.0000 26.3813 1.5876 1.6622 -3.2388 -5.9177 -16.2868 4.0908 6.7038 -8.7935 -16.9338 2.2745 -1.1111 0.0000 0.0000 0.0000 3.5041 6.3357 0.6079 -3.9962 13.2514 0.7895 -0.2061 0.0329 -2.9226 -0.0000 0.0000 -0.0000
76.0859 40.2738 26.3879 47.0006 -89.3485 -45.7293 0.0000 0.0000 0.0000 -3.9791 -7.8299 -1.3508 1.5971 -4.6913 7.1116 0.2628 -0.0371 -7.4053 -0.0000 0.0000 0.0000 0.0000 0.0000 0.0000 14.2802 -3.1065 4.5991 -23.0867 0.6436 -3.3500 0.0000 0.0000 0.0000 -18.5095 -35.1912 -46.2787 0.0000 0.0000 0.0000 -35.7995 -8.2548 4.9954 -12.3175 10.5231 -43.4030 -3.1905 -51.7618 -11.7560 5.3221 0.0205 -0.2441 0.0000 0.0000 0.0000 24.3651 1.5880 1.5624 0.4953 -3.9754 -17.7053 3.8097 9.7190 -10.8007 -18.6196 3.2377 -1.3746 0.0000 0.0000 0.0000 3.7493 6.6085 0.9431 -3.9911 13.1653 1.2779 -0.5014 0.0552 -3.4765 -0.0000 0.0000 -0.0000
75.9699 40.2067 26.2704 61.4120 -89.1795 -60.5298 0.0000 0.0000 0.0000 -4.1509 -8.0609 -0.6487 1.6005 -4.1536 7.2308 0.3367 -0.0399 -9.0971 -0.0000 0.0000 0.0000 0.0000 0.0000 0.0000 9.4637 -2.5115 4.2424 -15.0922 0.1691 -1.2643 0.0000 0.0000 0.0000 0.2826 13.5391 -75.6471 0.0000 0.0000 0.0000 -27.7870 -4.8718 2.8143 -0.9402 14.6460 -39.5293 -0.9509 -27.1698 -15.1830 5.3221 0.0205 -0.2441 0.0000 0.0000 0.0000 23.5251 1.9917 1.6497 3.7795 -3.7481 -16.7130 3.4183 13.1994 -10.7634 -18.3865 3.3725 -1.3803 0.0000 0.0000 0.0000 3.7680 6.7123 1.1545 -3.7710 12.9744 2.2657 -0.9563 0.0845 -4.4141 -0.0000 0.0000 -0.0000
75.8180 40.1872 26.1386 73.1922 -89.1389 -72.3916 0.0000 0.0000 0.0000 -4.1161 -8.3111 -0.5416 1.5582 -3.7062 7.9055 0.9216 -0.0460 -10.3652 -0.0000 0.0000 0.0000 0.0000 0.0000 0.0000 7.6561 -2.4727 6.9102 -11.3871 -0.6892 -5.3507 0.0000 0.0000 0.0000 -12.1038 -27.3213 -76.7530 0.0000 0.0000 0.0000 -29.7256 -5.7561 3.3199 -7.0451 15.1655 -35.1967 -1.4390 -26.2096 -17.6023 5.3221 0.0205 -0.2441 0.0000 0.0000 0.0000 27.0065 3.9799 2.4828 5.2123 -6.9997 -11.6640 2.9442 16.7948 -11.0511 -17.1570 2.7089 -1.1894 0.0000 0.0000 0.0000 3.8768 6.6687 1.4430 -3.6164 12.9540 2.4552 -1.6230 0.1210 -4.8832 -0.0000 0.0000 -0.0000
75.6371 40.1507 25.9711 99.4307 -89.0740 -98.5358 0.0000 0.0000 0.0000 -3.9152 -8.3566 -0.6645 1.4086 -3.1511 8.6296 1.5348 -0.0389 -11.6803 -0.0000 0.0000 0.0000 0.0000 0.0000 0.0000 5.9537 -1.7145 6.1194 -7.4556 -0.4896 -4.1634 0.0000 0.0000 0.0000 -26.6709 -16.2208 -72.5372 0.0000 0.0000 0.0000 -32.9862 -7.1538 4.1705 -11.6678 12.9158 -32.7156 -1.1957 -21.3139 -21.3740 5.3221 0.0205 -0.2441 0.0000 0.0000 0.0000 29.2158 5.0067 3.0011 8.3634 -7.9861 -9.0228 2.4192 18.4627 -9.6813 -15.6628 1.8289 -0.9673 0.0000 0.0000 0.0000 4.0521 6.7073 1.4013 -3.3336 13.3709 3.1021 -2.2249 0.1484 -5.3910 -0.0000 0.0000 -0.0000
